<?xml version="1.0"?>
<svg xmlns="http://www.w3.org/2000/svg" xmlns:xlink="http://www.w3.org/1999/xlink" xmlns:svgjs="http://svgjs.com/svgjs" version="1.1" width="512" height="512" x="0" y="0" viewBox="0 0 511.991 511.991" style="enable-background:new 0 0 512 512" xml:space="preserve" class=""><g transform="matrix(1,0,0,1,2.842170943040401e-14,2.842170943040401e-14)"><path xmlns="http://www.w3.org/2000/svg" d="m365.386 39.367c-7.955-7.718-19.597-13.894-35.365-17.693-7.798-8.659-19.118-14.174-33.291-14.174-16.032 0-27.722 5.678-27.722 5.678l1.658 2.006c-8.16-4.73-18.672-7.684-32.052-7.684-49.517 0-85.574 39.258-96.014 52.045-28.434 7.853-51.282 27.311-51.282 55.672 0 29.902 15.219 91.173 21.439 114.967-3.408 5.094-5.407 11.212-5.407 17.8 0 17.708 14.356 32.065 32.065 32.065h8.421c1.487 25.498 10.062 49.048 23.644 68.889v83.418l-11.38 2.584-11.418 26.123c-2.054 5.009-1.223 10.802 2.361 14.86 11.747 13.301 46.619 24.793 88.458 27.824 47.215 3.42 87.202-5.103 95.608-19.451 1.4-2.391 1.453-5.341.467-7.931l-12.723-31.924-.022-.02-15.077-4.051v-34.712c50.412-11.018 88.177-55.86 88.177-109.578v-121.877c4.638 3.863 9.941 7.255 16.032 9.652-.001 0 38.479-131.964-46.577-144.488z" fill="#ffffff" data-original="#ffffff" style="" class=""/><path xmlns="http://www.w3.org/2000/svg" d="m396.994 210.522c-1.029-.427-19.226-16.302-56.176-16.897-.043 0-14.482-1.754-14.529-1.754l1 4.738c2.143 10.152 10.598 17.762 20.911 18.91 24.952 2.778 42.486 9.744 42.672 9.818.994.411 2.024.603 3.041.603 3.151 0 6.141-1.867 7.417-4.959 1.684-4.091-.254-8.768-4.336-10.459z" fill="#fae692" data-original="#beebeb" style="" class=""/><circle xmlns="http://www.w3.org/2000/svg" cx="243.623" cy="234.357" fill="#c1c862" r="16.032" data-original="#00d2dc" style="" class=""/><circle xmlns="http://www.w3.org/2000/svg" cx="355.849" cy="234.357" fill="#c1c862" r="16.032" data-original="#00d2dc" style="" class=""/><path xmlns="http://www.w3.org/2000/svg" d="m387.913 103.694c-.341-35.558 21.409-57.857-22.527-64.327-7.955-7.718-19.597-13.894-35.365-17.693-7.798-8.659-19.118-14.174-33.291-14.174-16.032 0-27.722 5.678-27.722 5.678l1.658 2.006c-8.16-4.73-18.672-7.684-32.052-7.684-49.517 0-85.574 39.258-96.014 52.045-28.434 7.853-51.282 27.311-51.282 55.672 0 29.902 15.219 91.173 21.439 114.967-3.768 5.631-5.813 12.513-5.34 19.9 1.098 17.143 16.39 29.965 33.568 29.965h6.85c1.487 25.498 10.062 49.048 23.644 68.889v83.418l-11.38 2.584-11.418 26.123c-2.054 5.009-1.223 10.802 2.361 14.86 11.747 13.301 46.619 24.793 88.458 27.824 47.215 3.42 87.202-5.103 95.608-19.451 1.4-2.391 1.453-5.341.467-7.931l-12.723-31.924-.022-.02-15.077-4.051v-23.125c-55.844-18.403-96.194-70.909-96.194-132.916v-31.781c0-14.304 9.445-26.884 23.194-30.827 8.837-2.534 18.46-4.928 27.815-6.553 11.556-2.007 20.266-11.575 20.635-23.298-24.307.391-53.803 4.636-71.644 7.661v-79.806z" fill="#fae692" data-original="#beebeb" style="" class=""/><path xmlns="http://www.w3.org/2000/svg" d="m365.117 39.314-9.269 64.38s24.048 72.145 56.113 80.161c.001 0 38.578-132.266-46.844-144.541z" fill="#fae692" data-original="#beebeb" style="" class=""/><path xmlns="http://www.w3.org/2000/svg" d="m331.8 22.864-63.628 109.387c88.345 16.867 150.553-89.68 63.628-109.387z" fill="#fae692" data-original="#beebeb" style="" class=""/><path xmlns="http://www.w3.org/2000/svg" d="m296.73 7.5c-12.645 0-24.388 4.321-28.838 6.164-7.747-3.828-17.38-6.164-29.279-6.164-49.824 0-88.38 42.029-97.083 52.332-27.938 8.042-50.213 27.378-50.213 55.384 0 37.576 21.042 110.222 21.042 110.222l19.038-9.519h32.065v-64.855c41.378-2.495 137.232-13.632 168.339-63.403 22.878-36.607 5.009-80.161-35.071-80.161z" fill="#c1c862" data-original="#00d2dc" style="" class=""/><path xmlns="http://www.w3.org/2000/svg" d="m271.65 12.231c-1.513.541-2.827 1.047-3.758 1.433-7.747-3.828-17.38-6.164-29.279-6.164-49.824 0-88.38 42.029-97.083 52.332-27.938 8.042-50.213 27.378-50.213 55.384 0 20.561 6.297 51.575 12.003 75.49 17.972-4.941 37.246-6.293 60.142-6.673v-32.969-8.855c0-8.065 5.948-14.876 13.949-15.892 33.229-4.217 114.309-19.732 114.309-70.72 0-21.204-8.337-34.75-20.07-43.366z" fill="#5d9b81" data-original="#0096d2" style="" class=""/><path xmlns="http://www.w3.org/2000/svg" d="m395.853 280.048c-9.165 0-17.059 5.586-21.21 13.757-7.933 15.618-24.123 26.324-42.843 26.324h-104.21c-15.801 0-29.467-9.144-35.994-22.429-5.322-10.832-16.098-17.908-28.164-18.165l-15.64-.333c3.752 71.908 63.07 129.104 135.912 129.104 61.98 0 112.225-50.245 112.225-112.225v-16.033z" fill="#fae692" data-original="#beebeb" style="" class=""/><path xmlns="http://www.w3.org/2000/svg" d="m215.727 318.309c-10.588-3.281-19.312-10.801-24.131-20.609-5.322-10.833-16.098-17.908-28.165-18.165l-15.64-.333c.213 4.09.659 8.116 1.224 12.103.16 1.117.361 2.219.548 3.327.463 2.771 1.021 5.508 1.648 8.219.307 1.316.589 2.643.934 3.943.868 3.303 1.852 6.558 2.957 9.757.653 1.877 1.408 3.706 2.14 5.545.577 1.459 1.16 2.913 1.784 4.347.936 2.134 1.908 4.248 2.948 6.324.365.733.763 1.446 1.141 2.172 2.53 4.833 5.299 9.522 8.363 13.997v.014c24.507 35.8 65.544 59.356 112.226 59.356.935 0 1.84-.117 2.769-.14-34.816-18.321-60.996-50.815-70.746-89.857z" fill="#c1c862" data-original="#00d2dc" style="" class=""/><path xmlns="http://www.w3.org/2000/svg" d="m337.072 292.741h-82.689c-11.035 0-20.654 7.51-23.33 18.216l-.972 3.888c-1.265 5.059 2.562 9.96 7.777 9.96h115.74c5.215 0 9.042-4.901 7.777-9.96l-.972-3.888c-2.677-10.706-12.296-18.216-23.331-18.216z" fill="#c1c862" data-original="#00d2dc" style="" class=""/><path xmlns="http://www.w3.org/2000/svg" d="m300.161 340.76c23.644 0 44.332-24.048 44.332-24.048h-97.53c0-.001 29.554 24.048 53.198 24.048z" fill="#ffffff" data-original="#ffffff" style="" class=""/><path xmlns="http://www.w3.org/2000/svg" d="m325.983 452.301c-16.204 9.26-49.038 14.078-86.485 11.365-35.991-2.607-66.782-11.482-82.177-22.377l-8.642 19.773c-2.054 5.009-1.223 10.802 2.361 14.86 11.747 13.301 46.619 24.793 88.458 27.824 47.215 3.42 87.202-5.103 95.608-19.451 1.4-2.391 1.453-5.341.467-7.931z" fill="#c1c862" data-original="#00d2dc" style="" class=""/><path xmlns="http://www.w3.org/2000/svg" d="m212.707 460.422c-24.131-4.128-43.99-11.069-55.385-19.133l-8.642 19.773c-2.054 5.009-1.223 10.802 2.361 14.86 10.327 11.693 38.533 21.983 73.627 26.36z" fill="#5d9b81" data-original="#0096d2" style="" class=""/><path xmlns="http://www.w3.org/2000/svg" d="m283.704 432.355c-9.956 0-19.691-.965-29.148-2.758-9.854-1.868-18.949 5.685-18.949 15.714v19.108h72.145v-34.321c-7.821 1.402-15.83 2.257-24.048 2.257z" fill="#ffffff" data-original="#ffffff" style="" class=""/><g xmlns="http://www.w3.org/2000/svg" fill="#283c64"><path d="m219.581 209.794c1.12 0 2.257-.252 3.328-.783.183-.091 18.715-9.1 52.474-9.641 4.142-.066 7.445-3.478 7.379-7.62s-3.512-7.456-7.619-7.378c-37.113.595-58.029 10.77-58.902 11.202-3.71 1.841-5.226 6.342-3.384 10.052 1.309 2.64 3.964 4.168 6.724 4.168z" fill="#48392e" data-original="#283c64" style="" class=""/><path d="m281.229 289.512c5.59 5.274 13.112 8.178 21.179 8.178s15.589-2.904 21.179-8.178c3.013-2.842 3.151-7.589.309-10.602-2.843-3.013-7.589-3.152-10.602-.31-2.755 2.599-6.723 4.089-10.886 4.089s-8.131-1.491-10.886-4.089c-3.013-2.843-7.76-2.703-10.602.31s-2.704 7.76.309 10.602z" fill="#48392e" data-original="#283c64" style="" class=""/><path d="m239.896 314.199c-1.063 2.99-.128 6.326 2.333 8.329 1.291 1.051 31.921 25.731 57.932 25.731 26.777 0 49.081-25.569 50.017-26.657 1.912-2.223 2.354-5.354 1.131-8.019s-3.885-4.373-6.817-4.373h-97.53c-3.173.001-6.003 1.999-7.066 4.989zm84.717 10.012c-7.107 4.859-15.83 9.049-24.452 9.049-8.692 0-19.054-4.147-28.158-9.049z" fill="#48392e" data-original="#283c64" style="" class=""/><path d="m311.569 356.863c-4.027.649-8.008.978-11.833.978-3.699 0-7.725-.307-11.966-.914-4.095-.585-7.899 2.263-8.486 6.363s2.262 7.9 6.363 8.486c4.941.707 9.682 1.065 14.089 1.065 4.621 0 9.405-.393 14.219-1.169 4.089-.659 6.87-4.508 6.211-8.598-.658-4.089-4.505-6.868-8.597-6.211z" fill="#48392e" data-original="#283c64" style="" class=""/><path d="m267.155 250.389c0-2.24-.987-4.245-2.544-5.619 1.13-3.318-.196-7.08-3.345-8.902-3.584-2.074-8.174-.85-10.248 2.736-1.524 2.634-4.358 4.271-7.395 4.271-4.705 0-8.532-3.828-8.532-8.532s3.828-8.532 8.532-8.532c4.142 0 7.5-3.358 7.5-7.5s-3.358-7.5-7.5-7.5c-12.976 0-23.532 10.557-23.532 23.532 0 3.015.576 5.895 1.613 8.546h-2.129c-4.142 0-7.5 3.358-7.5 7.5s3.358 7.5 7.5 7.5h40.081c4.141 0 7.499-3.358 7.499-7.5z" fill="#48392e" data-original="#283c64" style="" class=""/><path d="m332.316 250.389c0 4.142 3.358 7.5 7.5 7.5h32.064c4.142 0 7.5-3.358 7.5-7.5 0-2.24-.987-4.245-2.544-5.619 1.13-3.318-.195-7.081-3.345-8.903-3.584-2.074-8.174-.85-10.248 2.736-1.524 2.634-4.358 4.271-7.396 4.271-4.705 0-8.532-3.828-8.532-8.532s3.828-8.532 8.532-8.532c4.142 0 7.5-3.358 7.5-7.5s-3.358-7.5-7.5-7.5c-12.976 0-23.532 10.557-23.532 23.532 0 3.768.895 7.329 2.476 10.489-1.516 1.374-2.475 3.352-2.475 5.558z" fill="#48392e" data-original="#283c64" style="" class=""/><path d="m153.441 431.503c.065-.149-.073.143 0 0z" fill="#48392e" data-original="#283c64" style="" class=""/><path d="m413.587 61.088c-10.393-16.138-26.051-25.9-46.528-29.053-7.778-7.422-18.499-12.818-32.001-16.096-9.539-10.236-22.963-15.939-38.328-15.939-13.324 0-23.962 3.552-28.556 5.38-8.467-3.526-18.415-5.38-29.561-5.38-56.02 0-94.509 44.677-101.142 53.207-9.296 2.874-17.926 6.884-25.318 11.905-18.273 12.41-28.337 30.204-28.337 50.105 0 36.1 18.68 102.997 21.47 112.785-3.45 5.869-5.438 12.696-5.438 19.982 0 21.816 17.749 39.564 39.565 39.564h1.518c2.524 23.479 10.679 45.202 23.046 63.848v68.742c-5.538 3.167-8.703 6.862-10.537 11.365l-11.634 26.556c-.023.052-.045.105-.067.157-3.149 7.677-1.706 16.576 3.678 22.671 13.507 15.293 50.223 27.202 93.538 30.34 7.063.511 14.082.764 20.943.764 15.815 0 30.784-1.344 43.472-3.962 24.936-5.144 34.54-13.684 38.207-19.943 2.497-4.262 2.863-9.507 1.006-14.389-.014-.036-.028-.073-.042-.109l-12.375-31.05c-1.808-5.726-6.585-10.901-14.914-15.524v-15.434c50.759-13.88 88.177-60.398 88.177-115.499v-107.877c1.856.957 3.781 1.841 5.787 2.63.884.348 1.816.521 2.746.521 1.133 0 2.264-.257 3.303-.767 1.892-.928 3.307-2.61 3.897-4.633.952-3.267 23-80.495-5.575-124.867zm-75.427 30.549c11.082-17.731 14.029-38.191 8.488-55.667 15.216 7.803 21.914 20.487 18.611 36.31-4.661 22.329-29.843 47.929-64.848 53.271 15.658-8.809 28.995-19.907 37.749-33.914zm-229.038 90.955c-5.164-22.441-10.305-49.317-10.305-67.375 0-18.939 11.835-30.953 21.764-37.696 13.497-9.167 32.048-14.424 50.897-14.424 4.142 0 7.5-3.358 7.5-7.5s-3.358-7.5-7.5-7.5c-3.045 0-6.086.134-9.11.372 14.824-13.755 42.037-33.469 76.245-33.469 23.176 0 38.809 9.201 44.019 25.907 5.533 17.74-2.731 39.711-19.223 51.104-3.408 2.354-4.262 7.026-1.907 10.434 1.456 2.107 3.796 3.238 6.177 3.238 1.47 0 2.956-.431 4.256-1.331 22.022-15.215 32.543-43.776 25.017-67.911-2.487-7.975-6.64-14.778-12.234-20.272 3.501-.674 7.577-1.169 12.012-1.169 14.442 0 25.994 6.493 32.528 18.282 8.026 14.481 6.563 33.795-3.817 50.405-37.409 59.854-179.917 60.604-181.353 60.604-4.142.002-7.499 3.36-7.498 7.502 0 4.142 3.357 7.498 7.499 7.498.952 0 5.211-.019 11.873-.292v17.367c-18.31.064-32.799.68-46.84 6.226zm46.84 8.772v17.055h-16.548c-8.186 0-15.798 2.499-22.116 6.773-1.227-4.525-2.854-10.686-4.636-17.841 12.197-5.34 25.267-5.923 43.3-5.987zm165.637 270.195 6.979 17.512c.226.619.201 1.187.057 1.433-2.254 3.847-10.871 9.24-28.295 12.834-16.877 3.482-38.292 4.521-60.3 2.927-44.794-3.244-74.622-15.394-83.379-25.308-1.618-1.831-2.034-4.565-1.069-6.983l5.517-12.622c4.556 3.678 10.941 7.052 19.143 10.102 15.734 5.85 36.775 9.938 59.247 11.511 6.648.465 13.2.695 19.559.695 15.136 0 29.168-1.304 40.714-3.839 9.407-2.066 16.69-4.829 21.827-8.262zm-142.621-16.868v-74.342c26.281 28.026 63.597 45.458 104.726 45.458 5.615 0 11.137-.398 16.548-1.149v39.625c-1.573.412-3.289.815-5.172 1.201-14.855 3.046-34.223 3.94-54.534 2.518-20.312-1.422-39.366-5.006-53.652-10.092-3.091-1.102-5.703-2.183-7.916-3.219zm227.973-271.718c-21.061-13.039-29.782-39.541-29.924-39.98-1.249-3.944-5.457-6.133-9.404-4.89-3.951 1.245-6.144 5.457-4.899 9.407.39 1.237 7.649 23.625 25.706 40.145v14.824c-10.271-3.126-29.37-7.712-54.003-8.107-4.134-.08-7.553 3.237-7.619 7.378s3.237 7.553 7.379 7.62c27.211.436 47.313 6.493 54.244 8.889v87.821c0 57.746-46.98 104.726-104.726 104.726-68.025 0-124.417-53.235-128.382-121.195-.231-3.966-3.515-7.063-7.487-7.063h-8.42c-13.545 0-24.565-11.02-24.565-24.564s11.02-24.564 24.565-24.564h16.548v8.532c0 4.142 3.358 7.5 7.5 7.5s7.5-3.358 7.5-7.5v-73.813c24.722-1.805 62.555-6.435 97.021-18.303 6.329 1.134 12.671 1.703 18.964 1.703 19.463 0 38.428-5.367 54.869-15.728 19.894-12.537 34.147-31.402 38.126-50.466 1.818-8.708 1.456-17.038-.995-24.637 9.228 3.82 16.503 9.931 22.015 18.482 19.744 30.63 10.679 83.069 5.987 103.783z" fill="#48392e" data-original="#283c64" style="" class=""/></g></g></svg>
